#!OML:ASF H:\Terrain\Patient Classification 1\Walking\steve\steve.ASF
:FULLY-SPECIFIED
:DEGREES
154
root 7.5916 15.7587 -6.40322 8.09665 -11.1678 -4.52829
lowerback -2.05093 5.89905 5.64719
upperback -3.0128 7.82567 0.167196
thorax -1.24318 3.81745 -2.83273
lowerneck -10.8996 -0.820327 -0.817629
upperneck 15.8909 -0.740106 -1.30311
head 6.63525 -0.513006 -0.348017
rclavicle -7.95694e-014 -1.96956e-014
rhumerus -5.95532 4.78473 -81.5893
rradius 50.1562
rwrist -19.4419
rhand -23.835 -39.6166
rfingers 7.12502
rthumb 2.63668 -69.58
lclavicle -7.95694e-014 -1.96956e-014
lhumerus -69.1305 24.9493 42.0385
lradius 8.39519
lwrist -30.7364
lhand -15.2713 -5.53107
lfingers 7.12502
lthumb 10.9031 24.1659
rfemur 12.2877 4.44178 24.0656
rtibia 22.8409
rfoot 5.8927 15.2668
rtoes 9.59538
lfemur -40.7589 2.56999 -14.4497
ltibia 25.8582
lfoot -7.34854 6.59701
ltoes -5.64509
155
root 7.60068 15.7386 -6.14149 8.1553 -11.0986 -4.30505
lowerback -2.28047 5.93106 5.25703
upperback -3.13422 7.85964 0.0354017
thorax -1.26943 3.83783 -2.73796
lowerneck -10.9862 -0.958154 -0.912423
upperneck 16.1003 -0.950316 -1.05971
head 6.71854 -0.600793 -0.274477
rclavicle 9.36307e-015 7.03201e-015
rhumerus -7.07037 4.49445 -81.6767
rradius 50.6125
rwrist -19.7502
rhand -21.3436 -36.1622
rfingers 7.12502
rthumb 5.04258 -66.0822
lclavicle 9.36307e-015 7.03201e-015
lhumerus -68.9951 25.2009 41.6443
lradius 8.16263
lwrist -30.9976
lhand -15.9019 -4.92834
lfingers 7.12502
lthumb 10.2948 24.7997
rfemur 11.2977 5.2509 23.9424
rtibia 25.7901
rfoot 7.43223 13.1535
rtoes 9.0709
lfemur -41.11 2.72624 -14.8925
ltibia 27.6039
lfoot -6.01781 6.0816
ltoes 0.779376
156
root 7.60501 15.7233 -5.89228 7.98448 -11.1131 -3.92128
lowerback -2.09744 5.96647 4.65645
upperback -3.22785 7.92526 -0.1111
thorax -1.51939 3.87304 -2.5896
lowerneck -10.7741 -1.14807 -1.57698
upperneck 16.0091 -1.22639 -0.304433
head 6.66161 -0.709406 0.0542732
rclavicle -4.4875e-014 -1.64991e-014
rhumerus -8.3739 3.65907 -81.8559
rradius 51.2202
rwrist -19.74
rhand -20.8348 -34.6238
rfingers 7.12502
rthumb 5.53386 -64.5315
lclavicle -4.4875e-014 -1.64991e-014
lhumerus -68.9323 25.3098 41.2398
lradius 8.12541
lwrist -31.5504
lhand -15.7315 -4.50179
lfingers 7.12502
lthumb 10.4591 25.218
rfemur 10.2604 6.02403 23.7012
rtibia 29.0104
rfoot 9.40782 10.4141
rtoes 10.207
lfemur -41.0983 3.1067 -15.6651
ltibia 29.3558
lfoot -4.58036 6.27512
ltoes -1.02927
157
root 7.61061 15.7165 -5.64617 7.68491 -11.0954 -3.36112
lowerback -1.84582 5.96359 3.89597
upperback -3.19768 7.9363 -0.312273
thorax -1.69756 3.88839 -2.41199
lowerneck -10.794 -1.2935 -2.05978
upperneck 15.8881 -1.4638 0.414194
head 6.63703 -0.792004 0.343186
rclavicle 8.30152e-014 -5.66536e-015
rhumerus -9.69726 2.73131 -82.0154
rradius 52.0196
rwrist -19.5946
rhand -22.5269 -38.2735
rfingers 7.12502
rthumb 3.90001 -68.2176
lclavicle 8.30152e-014 -5.66536e-015
lhumerus -68.4657 25.7482 40.9089
lradius 7.8044
lwrist -32.0109
lhand -14.9303 -3.85667
lfingers 7.12502
lthumb 11.232 25.8226
rfemur 9.10788 6.23641 23.0976
rtibia 32.313
rfoot 11.9067 7.33213
rtoes 11.6894
lfemur -40.9909 3.50122 -16.7153
ltibia 31.155
lfoot -3.93638 5.95725
ltoes -1.51785
158
root 7.618 15.7254 -5.39839 7.44432 -11.0144 -3.1714
lowerback -1.54386 5.93577 3.4911
upperback -3.26975 7.91451 -0.385482
thorax -1.98413 3.8781 -2.30952
lowerneck -10.7634 -1.36947 -2.0797
upperneck 15.9117 -1.60561 0.64853
head 6.64299 -0.84211 0.409086
rclavicle 2.61099e-014 -1.55052e-014
rhumerus -11.3234 2.39513 -82.0616
rradius 52.8634
rwrist -19.869
rhand -22.8942 -38.8994
rfingers 7.12502
rthumb 3.54531 -68.8496
lclavicle 2.61099e-014 -1.55052e-014
lhumerus -68.1427 26.2379 40.5251
lradius 7.41878
lwrist -32.3049
lhand -14.2539 -3.14596
lfingers 7.12502
lthumb 11.8843 26.4968
rfemur 7.88501 6.33022 22.7951
rtibia 35.6187
rfoot 14.1178 4.72479
rtoes 10.9684
lfemur -40.8461 3.917 -17.3553
ltibia 32.8158
lfoot -3.8427 4.75231
ltoes 2.67648
159
root 7.62317 15.7437 -5.15497 7.34714 -10.8943 -3.18069
lowerback -1.29162 5.87413 3.2825
upperback -3.43193 7.84508 -0.43097
thorax -2.31761 3.83862 -2.28528
lowerneck -10.68 -1.39871 -1.92755
upperneck 16.0037 -1.6843 0.702307
head 6.65793 -0.866891 0.394617
rclavicle -2.65354e-014 -1.23246e-014
rhumerus -13.0753 2.49286 -82.2171
rradius 53.6506
rwrist -20.4345
rhand -22.6584 -37.3987
rfingers 7.12502
rthumb 3.77298 -67.3451
lclavicle -2.65354e-014 -1.23246e-014
lhumerus -68.316 26.5527 39.9332
lradius 7.71455
lwrist -32.4947
lhand -13.7823 -3.42496
lfingers 7.12502
lthumb 12.339 26.1909
rfemur 6.46168 6.52492 22.7581
rtibia 38.9792
rfoot 16.0833 3.07388
rtoes 9.18522
lfemur -40.6487 4.20967 -17.6978
ltibia 34.0918
lfoot -3.56859 3.35617
ltoes 5.58819
160
root 7.62556 15.7612 -4.92011 7.2175 -10.859 -2.77396
lowerback -1.15365 5.83553 2.75921
upperback -3.42748 7.79175 -0.663172
thorax -2.42829 3.81978 -2.25503
lowerneck -10.8801 -1.49257 -1.90745
upperneck 15.9539 -1.84826 0.908265
head 6.68077 -0.926883 0.441413
rclavicle 7.98804e-014 -4.77083e-015
rhumerus -14.5221 2.34344 -82.545
rradius 54.3061
rwrist -20.9467
rhand -21.568 -35.4949
rfingers 7.12502
rthumb 4.82595 -65.42
lclavicle 7.98804e-014 -4.77083e-015
lhumerus -68.2919 26.9942 39.3841
lradius 8.17418
lwrist -32.6938
lhand -14.0611 -4.54257
lfingers 7.12502
lthumb 12.0702 25.0893
rfemur 4.79629 6.5877 22.3037
rtibia 42.4356
rfoot 18.2021 2.34767
rtoes 5.72328
lfemur -40.2641 4.35887 -18.4201
ltibia 35.0307
lfoot -3.75082 2.38092
ltoes 5.18939
161
root 7.62534 15.789 -4.69555 7.00296 -10.8935 -1.94482
lowerback -0.952302 5.77164 1.80892
upperback -3.29284 7.69792 -0.971348
thorax -2.48611 3.79227 -2.06967
lowerneck -11.3379 -1.53617 -2.16446
upperneck 15.8463 -1.92736 1.34374
head 6.73416 -0.941809 0.61335
rclavicle -7.46418e-015 -3.77691e-015
rhumerus -15.7225 1.9505 -82.8926
rradius 54.9221
rwrist -21.2428
rhand -21.8685 -35.9279
rfingers 7.12502
rthumb 4.53576 -65.8594
lclavicle -7.46418e-015 -3.77691e-015
lhumerus -68.0861 27.7332 38.9184
lradius 8.44775
lwrist -33.1717
lhand -14.5557 -4.99531
lfingers 7.12502
lthumb 11.5932 24.664
rfemur 2.96254 6.57269 21.4659
rtibia 45.9286
rfoot 20.0931 1.74128
rtoes -0.801449
lfemur -39.6485 4.48715 -19.6002
ltibia 35.6949
lfoot -4.39114 1.72645
ltoes 0.993948
